# xmcd
#
# Track frame offsets:
#	150
#	11747
#	25867
#	40647
#	57185
#	68057
#	81750
#	96795
#	109912
#	125435
#	140920
#	154112
#	165802
#	181712
#	193077
#	206727
#
# Disc length: 2927 seconds
#
# Revision: 3
# Processed by: cddbd v1.5.1PL2 Copyright (c) Steve Scherf et al.
# Submitted via: audiograbber 1.83.01
#
DISCID=d00b6d10
DTITLE=Various Artist - Deutsche Country and Trucker Weihnacht CD 2
DYEAR=1991
DGENRE=Country
TTITLE0=Jonny Hill - Oh Tannenbaum
TTITLE1=Linda Feller - In dieser stillen Nacht
TTITLE2=Tom Astor mit einem Trucker Chor - Ein Bäumchen mit 10 bunten Kerzen
TTITLE3=Jonny Hill - Professor Einstein
TTITLE4=Hanna and Daana - Du wunderschöner Tannenbaum
TTITLE5=Greyhounds - Nimm dir etwas Zeit
TTITLE6=Joe Hodgkins and Boss Band - Ich sing ein Weihnachtslied für alle Kinder
TTITLE7=New Country Sound Orchestra - Stille Nacht und weiße Weihnacht
TTITLE8=Jonny Hill - Stille Nacht, heilige Nacht
TTITLE9=Mike Hermann and Booze Company - Weihnachten im Truck
TTITLE10=Joe Hodgkins and Boss Band - Die Einsamkeit ist neben Dir
TTITLE11=Tex Haper - Hey Fahrer komm rein
TTITLE12=Greyhounds - Moderne Weihnachtsmänner
TTITLE13=Jonny Hill - Der kleine Trommler
TTITLE14=Nils Tuxen - Weihnachtsträume
TTITLE15=Ralf Paulsen - In Thüringen und Sachsen
EXTD=
EXTT0=
EXTT1=
EXTT2=
EXTT3=
EXTT4=
EXTT5=
EXTT6=
EXTT7=
EXTT8=
EXTT9=
EXTT10=
EXTT11=
EXTT12=
EXTT13=
EXTT14=
EXTT15=
PLAYORDER=
